<svg width="512" height="512" viewBox="0 0 512 512" xmlns="http://www.w3.org/2000/svg">
  <defs>
    <linearGradient id="pgsGradient" x1="0%" y1="0%" x2="100%" y2="100%">
      <stop offset="0%" stop-color="#4ade80" />
      <stop offset="100%" stop-color="#15803d" />
    </linearGradient>
  </defs>
  <rect width="512" height="512" rx="128" fill="#050c10" />
  <path
    d="M136 176c0-26.51 21.49-48 48-48h80c57.44 0 104 46.56 104 104s-46.56 104-104 104h-56v48h-72V176zm72 64v48h56c26.51 0 48-21.49 48-48s-21.49-48-48-48h-56v48z"
    fill="url(#pgsGradient)"
  />
  <path
    d="M256 224h72c44.18 0 80 35.82 80 80s-35.82 80-80 80h-32v-64h32c8.84 0 16-7.16 16-16s-7.16-16-16-16h-72v-64z"
    fill="#22c55e"
  />
</svg>
